HIERARCHY
ROOT Hips
{
    OFFSET 0.000000 0.000000 0.000000
    CHANNELS 6 Xposition Yposition Zposition Zrotation Xrotation Yrotation
    JOINT Spine
    {
        OFFSET -0.000000 14.517291 0.000000
        CHANNELS 3 Zrotation Xrotation Yrotation
        JOINT Spine1
        {
            OFFSET -0.000000 37.558300 0.000000
            CHANNELS 3 Zrotation Xrotation Yrotation
            JOINT Neck
            {
                OFFSET -0.000000 37.404057 3.400369
                CHANNELS 3 Zrotation Xrotation Yrotation
                JOINT Head
                {
                    OFFSET -0.000000 24.785618 -3.540803
                    CHANNELS 3 Zrotation Xrotation Yrotation
                    End Site
                    {
                        OFFSET -0.000000 35.408028 0.000000
                    }
                }
            }
            JOINT LeftShoulder
            {
                OFFSET 6.992933 33.973492 -0.192664
                CHANNELS 3 Zrotation Xrotation Yrotation
                JOINT LeftArm
                {
                    OFFSET 21.527611 0.000000 0.000000
                    CHANNELS 3 Zrotation Xrotation Yrotation
                    JOINT LeftForeArm
                    {
                        OFFSET 56.353916 0.000000 0.000000
                        CHANNELS 3 Zrotation Xrotation Yrotation
                        JOINT LeftHand
                        {
                            OFFSET 47.774071 0.000000 0.000000
                            CHANNELS 3 Zrotation Xrotation Yrotation
                            End Site
                            {
                                OFFSET 26.556021 0.000000 0.000000
                            }
                        }
                    }
                }
            }
            JOINT RightShoulder
            {
                OFFSET -7.065357 33.973492 -0.192664
                CHANNELS 3 Zrotation Xrotation Yrotation
                JOINT RightArm
                {
                    OFFSET -21.527611 0.000000 0.000000
                    CHANNELS 3 Zrotation Xrotation Yrotation
                    JOINT RightForeArm
                    {
                        OFFSET -56.353916 0.000000 0.000000
                        CHANNELS 3 Zrotation Xrotation Yrotation
                        JOINT RightHand
                        {
                            OFFSET -47.774071 0.000000 0.000000
                            CHANNELS 3 Zrotation Xrotation Yrotation
                            End Site
                            {
                                OFFSET -26.556021 0.000000 0.000000
                            }
                        }
                    }
                }
            }
        }
    }
    JOINT LeftUpLeg
    {
        OFFSET 17.704014 0.000000 0.000000
        CHANNELS 3 Zrotation Xrotation Yrotation
        JOINT LeftLeg
        {
            OFFSET -0.000000 -81.181816 0.000000
            CHANNELS 3 Zrotation Xrotation Yrotation
            JOINT LeftFoot
            {
                OFFSET -0.000000 -62.821102 0.000000
                CHANNELS 3 Zrotation Xrotation Yrotation
                JOINT LeftToeBase
                {
                    OFFSET -0.000000 -11.507608 26.556021
                    CHANNELS 3 Zrotation Xrotation Yrotation
                    End Site
                    {
                        OFFSET -0.000000 0.000000 7.081605
                    }
                }
            }
        }
    }
    JOINT RightUpLeg
    {
        OFFSET -17.704014 0.000000 0.000000
        CHANNELS 3 Zrotation Xrotation Yrotation
        JOINT RightLeg
        {
            OFFSET -0.000000 -81.181816 0.000000
            CHANNELS 3 Zrotation Xrotation Yrotation
            JOINT RightFoot
            {
                OFFSET -0.000000 -62.821102 0.000000
                CHANNELS 3 Zrotation Xrotation Yrotation
                JOINT RightToeBase
                {
                    OFFSET -0.000000 -11.507608 26.556021
                    CHANNELS 3 Zrotation Xrotation Yrotation
                    End Site
                    {
                        OFFSET -0.000000 0.000000 7.081605
                    }
                }
            }
        }
    }
}
MOTION
Frames:    12
Frame Time:    0.008333
-1.936487    153.085510    -20.874743    -13.031885    2.092716    -13.143491    -1.310264    1.608472    12.774838    -16.964060    -0.087601    4.241375    4.441828    -11.703662    2.438545    9.659752    1.222032    2.701090    0.558893    1.377805    -6.085497    -43.070030    18.871492    -38.271824    -6.942059    -16.550514    -127.923004    0.137803    -29.667072    -3.313314    -18.249666    -2.212554    4.592002    27.339935    -10.500818    74.084763    -1.468401    -27.862173    13.817711    15.680559    -22.431314    40.490391    29.518488    -32.762230    -13.913684    -14.851009    29.624685    -10.838648    -12.372431    -3.866383    45.130318    0.000000    0.000000    0.000000    16.505430    5.276692    -20.406691    3.403392    28.679962    -5.934558    0.191815    -24.884912    -6.206962    0.000000    0.000000    0.000000    
-1.696517    153.157974    -20.763182    -12.876512    2.069892    -12.976900    -1.257502    1.636947    12.766981    -16.807011    -0.076357    4.240601    4.565894    -11.632504    2.466719    9.582891    1.291922    2.685996    0.611277    1.417772    -6.099832    -43.135220    18.903120    -38.325104    -6.940622    -16.485723    -127.925804    0.139299    -29.606464    -3.289251    -18.166676    -2.086375    4.618546    27.222227    -10.557406    74.029373    -1.495920    -27.885309    13.869507    15.727540    -22.432585    40.510040    29.216873    -32.784225    -13.905470    -14.846326    29.489042    -10.918214    -12.269297    -3.703011    45.070114    0.000000    0.000000    0.000000    16.319933    5.279990    -20.462736    3.363290    28.586485    -5.953898    0.257429    -24.857248    -6.272371    0.000000    0.000000    0.000000    
-1.451354    153.232544    -20.676275    -12.710853    2.094763    -12.798362    -1.187600    1.613870    12.740519    -16.657518    -0.054512    4.235367    4.632142    -11.602846    2.495634    9.596466    1.412875    2.692469    0.666497    1.439595    -6.123869    -43.176682    18.922937    -38.341595    -6.964293    -16.419683    -127.948227    0.209649    -29.597464    -3.246897    -18.117538    -2.074831    4.601225    27.373764    -10.623538    74.029739    -1.372548    -27.745998    13.920299    15.692546    -22.319626    40.460545    28.921619    -32.862240    -13.875854    -14.825350    29.348459    -10.980370    -12.191634    -3.500839    44.968410    0.000000    0.000000    0.000000    16.139339    5.223056    -20.479698    3.336380    28.492851    -6.028853    0.352827    -24.828480    -6.329151    0.000000    0.000000    0.000000    
-1.190446    153.313583    -20.557549    -12.528055    2.097296    -12.644497    -1.108768    1.562039    12.747595    -16.547220    0.027653    4.250168    4.716793    -11.570016    2.507028    9.635634    1.516634    2.680974    0.759887    1.452151    -6.157844    -43.237984    18.963369    -38.385838    -6.943768    -16.411400    -127.937378    0.115353    -29.547392    -3.302078    -17.996155    -2.076559    4.594035    27.312317    -10.608351    73.958229    -1.361055    -27.743313    13.968183    15.711232    -22.309620    40.470509    28.602266    -32.883804    -13.799591    -14.786103    29.194246    -11.073499    -12.084889    -3.319728    44.854759    0.000000    0.000000    0.000000    15.914234    5.207229    -20.461704    3.342866    28.395256    -6.078457    0.401017    -24.792147    -6.417540    0.000000    0.000000    0.000000    
-0.917418    153.401901    -20.478964    -12.323627    2.075084    -12.390694    -1.060429    1.639719    12.666546    -16.449959    -0.025444    4.215360    4.884295    -11.468333    2.560277    9.554476    1.544588    2.685806    0.859956    1.481535    -6.175551    -43.302296    18.946775    -38.432793    -6.982688    -16.279247    -127.945396    0.291681    -29.504723    -3.216028    -17.871571    -1.956296    4.617550    27.425528    -10.803924    73.960686    -1.193281    -27.598949    13.999619    15.696357    -22.174414    40.527027    28.178701    -32.961182    -13.843579    -14.723429    29.029617    -11.177160    -12.021687    -3.055976    44.777466    0.000000    0.000000    0.000000    15.679140    5.175083    -20.593609    3.311297    28.303543    -6.078376    0.460162    -24.766880    -6.504173    0.000000    0.000000    0.000000    
-0.658546    153.481537    -20.366426    -12.138920    2.059211    -12.233664    -1.005234    1.641316    12.675965    -16.274523    0.009444    4.223687    4.857378    -11.448375    2.562598    9.672094    1.634763    2.703621    0.883028    1.482744    -6.197687    -43.317532    18.988041    -38.449394    -6.987293    -16.262644    -127.956757    0.224898    -29.499737    -3.253825    -17.826927    -1.983026    4.615624    27.479752    -10.799805    73.883858    -1.146141    -27.500233    14.028471    15.712626    -22.071209    40.523251    27.854134    -32.961662    -13.781275    -14.697380    28.859751    -11.266394    -11.917498    -2.865683    44.678242    0.000000    0.000000    0.000000    15.466273    5.184297    -20.571779    3.302752    28.180607    -6.129117    0.512964    -24.748745    -6.609450    0.000000    0.000000    0.000000    
-0.386703    153.558945    -20.244003    -11.950538    2.024346    -12.055596    -0.942663    1.655578    12.672557    -16.133665    0.039921    4.226996    4.976576    -11.462705    2.621510    9.702657    1.783218    2.726127    0.986616    1.527915    -6.200532    -43.361305    19.036396    -38.560608    -6.979337    -16.279001    -127.950447    0.304622    -29.500067    -3.159715    -17.714159    -1.922572    4.649949    27.550280    -10.969685    73.816711    -0.977812    -27.360262    14.070612    15.665775    -21.952900    40.574028    27.493858    -32.954201    -13.754047    -14.664414    28.687996    -11.302577    -11.808481    -2.652325    44.512074    0.000000    0.000000    0.000000    15.238350    5.208436    -20.584145    3.294122    28.069851    -6.178029    0.575217    -24.734617    -6.699131    0.000000    0.000000    0.000000    
-0.103708    153.635193    -20.115705    -11.752151    2.007609    -11.871025    -0.869333    1.650442    12.676347    -15.978829    0.079172    4.234003    5.046643    -11.346493    2.648281    9.686839    1.731181    2.743866    1.053247    1.542731    -6.236344    -43.393604    19.055141    -38.614735    -6.967993    -16.274714    -127.953331    0.235213    -29.474775    -3.200253    -17.651609    -1.895437    4.565316    27.610867    -11.004935    73.826866    -0.901178    -27.256439    14.089447    15.675187    -21.854544    40.541485    27.129673    -32.962467    -13.707573    -14.636394    28.513767    -11.364983    -11.687511    -2.452926    44.373566    0.000000    0.000000    0.000000    14.997839    5.210325    -20.647923    3.252571    27.978905    -6.129046    0.622349    -24.726151    -6.817069    0.000000    0.000000    0.000000    
0.171319    153.703186    -19.989733    -11.558478    1.991819    -11.698331    -0.801446    1.624021    12.678834    -15.807563    0.133548    4.242561    5.142009    -11.266827    2.687905    9.666052    1.735097    2.761939    1.133845    1.563959    -6.260171    -43.447769    19.049458    -38.670586    -6.985127    -16.222778    -127.953018    0.292189    -29.459938    -3.161130    -17.572168    -1.788360    4.614210    27.623995    -11.184202    73.745377    -0.782395    -27.192339    14.144851    15.708161    -21.781916    40.592392    26.781847    -32.958324    -13.638023    -14.601797    28.337591    -11.459015    -11.566058    -2.272771    44.244133    0.000000    0.000000    0.000000    14.778584    5.210879    -20.686779    3.185138    27.886211    -6.147547    0.725045    -24.738411    -6.872980    0.000000    0.000000    0.000000    
0.451034    153.774597    -19.869049    -11.356523    1.971202    -11.509500    -0.731086    1.621435    12.678909    -15.645125    0.178886    4.248896    5.181489    -11.163448    2.698948    9.704141    1.676536    2.778058    1.208017    1.580306    -6.292524    -43.468082    19.099697    -38.750195    -6.967805    -16.304617    -127.962921    0.239046    -29.504074    -3.183295    -17.539207    -1.886248    4.535397    27.756826    -11.144608    73.689484    -0.661847    -27.094536    14.177862    15.736935    -21.676096    40.642632    26.410307    -32.960598    -13.598558    -14.564285    28.160204    -11.539230    -11.449937    -2.067301    44.106895    0.000000    0.000000    0.000000    14.545638    5.210923    -20.688522    3.163313    27.792076    -6.191926    0.786408    -24.737284    -6.980116    0.000000    0.000000    0.000000    
0.743316    153.839676    -19.743303    -11.149487    1.952969    -11.305585    -0.647641    1.601667    12.667141    -15.484154    0.233477    4.252488    5.213985    -11.059005    2.724088    9.743898    1.625720    2.810352    1.277063    1.621710    -6.313380    -43.486698    19.044260    -38.844891    -6.983464    -16.243248    -127.947632    0.270507    -29.473326    -3.139206    -17.468920    -1.812138    4.567425    27.729578    -11.239669    73.577492    -0.624533    -27.084341    14.266659    15.767285    -21.657867    40.647873    26.028242    -32.976154    -13.559265    -14.545726    27.981339    -11.580520    -11.321705    -1.847464    43.938839    0.000000    0.000000    0.000000    14.300062    5.194818    -20.746000    3.122814    27.731922    -6.210705    0.846729    -24.747953    -7.084495    0.000000    0.000000    0.000000    
1.050133    153.901550    -19.626947    -10.938868    1.940875    -11.100533    -0.553796    1.595923    12.648849    -15.343539    0.273477    4.251827    5.258952    -11.017075    2.760014    9.798055    1.638983    2.844528    1.354054    1.645756    -6.321044    -43.488892    19.065645    -38.938740    -6.972884    -16.266403    -127.944588    0.334083    -29.475895    -3.128877    -17.357548    -1.850343    4.550569    27.689600    -11.223921    73.484253    -0.603455    -27.074636    14.286428    15.834656    -21.622101    40.676994    25.630785    -32.998325    -13.522461    -14.506641    27.804493    -11.618429    -11.218307    -1.638944    43.767929    0.000000    0.000000    0.000000    14.052573    5.166658    -20.784821    3.076143    27.674515    -6.214921    0.915355    -24.771231    -7.214302    0.000000    0.000000    0.000000    
